<?xml version="1.0" encoding="UTF-8"?>
<svg id="Layer_2" data-name="Layer 2" xmlns="http://www.w3.org/2000/svg" viewBox="0 0 249.1 171.9">
  <defs>
    <style>
      .cls-1 {
        fill: #fff;
      }
    </style>
  </defs>
  <g id="svg20">
    <g id="g18">
      <path id="path2" class="cls-1" d="M71.8.5c-22.4,1-37.9,2.6-44.6,4.5C17.4,7.8,10,14.4,5.9,23.8,1.6,33.9-1.2,76.7.5,106.7c2.3,39.2,5.9,50,19.1,57.1,11.7,6.4,35,8.2,106.6,8.1,65.3,0,90.2-1.6,101.7-6.6,6.2-2.7,14.1-11.2,16.2-17.5,4-12.2,5-24.4,5-61.8,0-48.9-2-61.5-11.6-72-7.7-8.5-14.3-10.5-41.8-12.5C177.5.1,94.7-.5,71.8.5ZM131,67.6c16.6,9.5,30.6,17.5,31,17.9.7.6-60.1,36-61.8,36-.3,0-.5-16-.5-35.5s.2-35.5.5-35.5,14.1,7.7,30.8,17.1Z"/>
    </g>
  </g>
</svg>