<?xml version="1.0" encoding="UTF-8" standalone="no"?>
<!DOCTYPE svg PUBLIC "-//W3C//DTD SVG 1.1//EN" "http://www.w3.org/Graphics/SVG/1.1/DTD/svg11.dtd">
<svg width="100%" height="100%" viewBox="0 0 3532 252" version="1.1" xmlns="http://www.w3.org/2000/svg" xmlns:xlink="http://www.w3.org/1999/xlink" xml:space="preserve" xmlns:serif="http://www.serif.com/" style="fill-rule:evenodd;clip-rule:evenodd;stroke-linejoin:round;stroke-miterlimit:2;">
    <g transform="matrix(1,0,0,1,-103.987947,-1225.875)">
        <g transform="matrix(4.166667,0,-0.401204,4.166667,1075.593292,1456.333333)">
            <text x="0px" y="0px" style="font-family:'NHaasGroteskDSPro-75Bd', 'Neue Haas Grotesk Display Pro', sans-serif;font-weight:700;font-size:70.9px;fill:white;">S</text>
        </g>
        <g transform="matrix(4.166667,0,-0.401204,4.166667,1272.051625,1456.333333)">
            <text x="0px" y="0px" style="font-family:'NHaasGroteskDSPro-75Bd', 'Neue Haas Grotesk Display Pro', sans-serif;font-weight:700;font-size:70.9px;fill:white;">E<tspan x="43.462px " y="0px ">C</tspan></text>
        </g>
        <g transform="matrix(4.166667,0,-0.401204,4.166667,1664.968292,1456.333333)">
            <text x="0px" y="0px" style="font-family:'NHaasGroteskDSPro-75Bd', 'Neue Haas Grotesk Display Pro', sans-serif;font-weight:700;font-size:70.9px;fill:white;">T</text>
        </g>
        <g transform="matrix(4.166667,0,-0.401204,4.166667,1846.343292,1456.333333)">
            <text x="0px" y="0px" style="font-family:'NHaasGroteskDSPro-75Bd', 'Neue Haas Grotesk Display Pro', sans-serif;font-weight:700;font-size:70.9px;fill:white;">OR<tspan x="100.706px " y="0px ">3</tspan></text>
        </g>
        <g transform="matrix(4.166667,0,-0.401204,4.166667,2505.759958,1456.333333)">
            <text x="0px" y="0px" style="font-family:'NHaasGroteskDSPro-75Bd', 'Neue Haas Grotesk Display Pro', sans-serif;font-weight:700;font-size:70.9px;fill:white;">R</text>
        </g>
        <g transform="matrix(4.166667,0,-0.401204,4.166667,2711.343292,1456.333333)">
            <text x="0px" y="0px" style="font-family:'NHaasGroteskDSPro-75Bd', 'Neue Haas Grotesk Display Pro', sans-serif;font-weight:700;font-size:70.9px;fill:white;">A</text>
        </g>
        <g transform="matrix(4.166667,0,-0.401204,4.166667,2908.426625,1456.333333)">
            <text x="0px" y="0px" style="font-family:'NHaasGroteskDSPro-75Bd', 'Neue Haas Grotesk Display Pro', sans-serif;font-weight:700;font-size:70.9px;fill:white;">CI<tspan x="69.51px " y="0px ">N</tspan>G</text>
        </g>
        <g transform="matrix(4.166667,0,0,4.166667,-77.573375,-1313.583333)">
            <path d="M104.08,662.15C103.11,666.35 98.79,669.79 94.48,669.79L49.85,669.79C45.54,669.79 42.8,666.35 43.77,662.15L54.17,617.12C55.14,612.92 59.46,609.48 63.77,609.48L108.4,609.48C112.71,609.48 115.45,612.92 114.48,617.12L104.08,662.15Z" style="fill:white;fill-rule:nonzero;"/>
        </g>
        <g transform="matrix(4.166667,0,0,4.166667,-77.573375,-1313.583333)">
            <path d="M212.15,609.47C207.84,609.47 203.52,612.91 202.55,617.11L192.15,662.14C191.18,666.34 193.91,669.78 198.23,669.78L242.86,669.78C247.17,669.78 251.49,666.34 252.46,662.14L262.86,617.11C263.83,612.91 261.1,609.47 256.78,609.47L212.15,609.47ZM241.42,648.27C240.45,652.47 236.13,655.91 231.82,655.91L215.66,655.91C211.35,655.91 208.61,652.47 209.58,648.27L213.57,630.98C214.54,626.78 218.86,623.34 223.17,623.34L239.33,623.34C243.64,623.34 246.38,626.78 245.41,630.98L241.42,648.27Z" style="fill:white;fill-rule:nonzero;"/>
        </g>
        <g transform="matrix(4.166667,0,0,4.166667,-77.573375,-1313.583333)">
            <path d="M178.27,662.15C177.3,666.35 172.98,669.79 168.67,669.79L124.04,669.79C119.73,669.79 116.99,666.35 117.96,662.15L128.36,617.12C129.33,612.92 133.65,609.48 137.96,609.48L182.59,609.48C186.9,609.48 189.64,612.92 188.67,617.12L178.27,662.15Z" style="fill:white;fill-rule:nonzero;"/>
        </g>
    </g>
</svg>
